#N canvas 331 76 666 444 10;
#X obj 29 54 bng 15 250 50 0 empty empty empty 0 -6 0 8 -262144 -1
-1;
#X text 50 51 load sound;
#X obj 30 252 soundfiler;
#X floatatom 67 279 12 0 0 0 - - -;
#N canvas 0 0 450 300 (subpatch) 0;
#X array array\$1L 192551 float 2;
#X coords 0 1 192551 -1 100 70 1 0 0;
#X restore 337 284 graph;
#X text 337 254 make sure it does not "Save Contents?";
#X text 235 225 make sure -resize \, else file is cropped to length
of array1;
#X text 235 214 for stereo: 'read -resize (\$1) channelL channelR'
;
#X obj 30 335 expr 44100 / $f1;
#X floatatom 66 392 12 0 0 0 - - -;
#X obj 30 454 phasor~;
#X obj 31 500 *~;
#X obj 345 584 vsl 30 60 0 1 0 0 empty empty empty 0 -9 0 10 -262144
-1 -1 0 1;
#X obj 33 691 *~;
#X text 379 618 Volume Slider [vslider] from 0-1;
#X msg 118 424 0;
#X msg 155 424 0.5;
#X text 39 589 audio is here;
#X text 37 516 this is "position" (index into array) signal;
#X text 81 453 signal only from 0 to 1;
#X text 115 407 skip to start/half of file;
#X floatatom 156 381 12 0 0 0 - - -;
#X obj 303 629 inlet;
#X obj 37 419 *~;
#X obj 156 358 snapshot~;
#X obj 156 333 metro 50;
#X obj 156 311 tgl 15 0 empty empty empty 17 7 0 10 -262144 -1 -1 0
1;
#X obj 30 154 prepend list;
#X obj 336 503 snapshot~;
#X obj 336 481 metro 40;
#X obj 325 459 tgl 15 0 empty empty empty 17 7 0 10 -262144 -1 -1 1
1;
#X obj 346 458 loadbang;
#X text 386 517 gauge is discrete in 0 to 1 \,;
#X obj 336 524 * 332;
#X text 386 526 so multiply here (width pixels);
#X text 336 242 array needs to be "Put" separately \,;
#N canvas 0 0 450 300 (subpatch) 0;
#X array array\$1R 192551 float 2;
#X coords 0 1 192551 -1 100 70 1 0 0;
#X restore 337 369 graph;
#X obj 156 692 *~;
#X msg 29 74 /DISKPATHTO/tmp/tt_seqintf_song1_93.wav;
#X obj 29 97 s wavfile\$1;
#X obj 30 130 r wavfile\$1;
#X obj 30 198 list append;
#X msg 300 75 array\$1L array\$1R;
#X text 115 147 this `list` just to have the \$1 selector trigger (note
\, now also different \$1);
#X text 416 65 derive array names from argument of caller;
#X msg 30 224 read -resize \$1 \$2 \$3;
#X text 417 77 they become \$2 and \$3 in list below;
#X obj 55 356 r~ rspd\$1;
#X obj 67 302 s sampleSize\$1;
#X obj 66 480 r sampleSize\$1;
#X obj 32 571 tabread4~ array\$1L;
#X obj 156 571 tabread4~ array\$1R;
#X obj 336 545 s rgauge\$1;
#X obj 300 30 bng 15 250 50 0 empty empty empty 0 -6 0 8 -262144 -1
-1;
#X obj 300 49 f \$1;
#X obj 334 49 prepend list;
#X text 415 32 extract the subpatch arg via float box;
#X text 415 43 then prepend list so the msgbox reads that numb as \$1
;
#X obj 29 -25 inlet;
#X text 69 -31 wav filename;
#X obj 29 -1 prepend set;
#X obj 29 24 t b b a;
#X obj 32 716 outlet~;
#X obj 157 716 outlet~;
#X text 81 713 out Left;
#X text 207 712 out Right;
#X connect 0 0 38 0;
#X connect 2 0 3 0;
#X connect 2 0 8 0;
#X connect 3 0 48 0;
#X connect 8 0 9 0;
#X connect 9 0 23 1;
#X connect 10 0 11 0;
#X connect 10 0 28 0;
#X connect 11 0 50 0;
#X connect 11 0 51 0;
#X connect 13 0 62 0;
#X connect 15 0 10 1;
#X connect 16 0 10 1;
#X connect 22 0 13 1;
#X connect 22 0 37 1;
#X connect 23 0 10 0;
#X connect 24 0 21 0;
#X connect 25 0 24 0;
#X connect 26 0 25 0;
#X connect 27 0 41 0;
#X connect 28 0 33 0;
#X connect 29 0 28 0;
#X connect 30 0 29 0;
#X connect 31 0 30 0;
#X connect 33 0 52 0;
#X connect 37 0 63 0;
#X connect 38 0 39 0;
#X connect 40 0 27 0;
#X connect 41 0 45 0;
#X connect 42 0 41 1;
#X connect 45 0 2 0;
#X connect 47 0 23 0;
#X connect 47 0 24 0;
#X connect 49 0 11 1;
#X connect 50 0 13 0;
#X connect 51 0 37 0;
#X connect 53 0 54 0;
#X connect 54 0 55 0;
#X connect 55 0 42 0;
#X connect 58 0 60 0;
#X connect 60 0 61 0;
#X connect 61 0 0 0;
#X connect 61 1 53 0;
#X connect 61 2 38 0;
