#N canvas 477 145 449 300 10;
#X obj 17 58 loadbang;
#X obj 71 58 inlet;
#X obj 71 78 bang;
#X obj 43 162 outlet;
#X text 187 69 Inlets;
#X text 187 109 Outlets;
#X text -18 209 (C) 2006 João Pais - jmmmpais@googlemail.com [lbang]
\; (C) 2006 sdaau - sd@imi.aau.dk [lbangv];
#N canvas 0 0 426 446 license 0;
#X text 8 47 All rights reserved.;
#X text 8 227 The names of its contributors may not be used to endorse
or promote products derived from this software without specific prior
written permission.;
#X text 8 87 Redistribution and use in source and binary forms \, with
or without modification \, are permitted provided that the following
conditions are met:;
#X text 8 127 Redistributions of source code must retain the above
copyright notice \, this list of conditions and the following disclaimer.
;
#X text 8 297 THIS SOFTWARE IS PROVIDED BY THE COPYRIGHT HOLDERS AND
CONTRIBUTORS "AS IS" AND ANY EXPRESS OR IMPLIED WARRANTIES \, INCLUDING
\, BUT NOT LIMITED TO \, THE IMPLIED WARRANTIES OF MERCHANTABILITY
AND FITNESS FOR A PARTICULAR PURPOSE ARE DISCLAIMED. IN NO EVENT SHALL
THE COPYRIGHT OWNER OR CONTRIBUTORS BE LIABLE FOR ANY DIRECT \, INDIRECT
\, INCIDENTAL \, SPECIAL \, EXEMPLARY \, OR CONSEQUENTIAL DAMAGES (INCLUDING
\, BUT NOT LIMITED TO \, PROCUREMENT OF SUBSTITUTE GOODS OR SERVICES
;
#X text 8 167 Redistributions in binary form must reproduce the above
copyright notice \, this list of conditions and the following disclaimer
in the documentation and/or other materials provided with the distribution.
;
#X text 8 27 jmmmpais@googlemail.com;
#X text 8 7 Copyright 2006 \, João Pais;
#X restore 15 189 pd license;
#X text 12 10 [lbangv] - loadbang which can be triggered more often
\; with value;
#X obj 70 102 bng 13 250 50 0 empty empty empty 0 -6 0 8 -233017 -1
-1;
#X text 216 71 - bang;
#X text 216 121 - loadbang / bang;
#X obj 88 142 iem_anything \$1;
#X obj 43 121 t b b;
#X obj 88 162 outlet;
#X text 187 143 - the initial argument;
#X text 187 31 Arguments;
#X text 187 49 - value to output on 2nd outlet;
#X connect 0 0 9 0;
#X connect 1 0 2 0;
#X connect 2 0 9 0;
#X connect 9 0 13 0;
#X connect 12 0 14 0;
#X connect 13 0 3 0;
#X connect 13 1 12 0;
#X coords 0 -1 1 1 65 17 1 20 100;
