#N canvas 154 49 645 485 10;
#X obj 21 13 inlet;
#X text 68 10 initialization bang;
#X obj 21 36 bang;
#X obj 21 60 t b b;
#X msg 48 90 33;
#X text 377 72 this runs continuously;
#X obj 73 52 bng 15 250 50 0 empty empty empty 17 7 0 10 -262144 -1
-1;
#X text 207 17 note: there is no trigger int in PD \, only t float
;
#X text 208 39 http://lists.puredata.info/pipermail/pd-list/2000-12/001611.html
;
#X text 206 27 (`t i i` will give "bad type" \, but it will work);
#X obj 22 273 sel True False;
#X obj 22 247 prepend symbol;
#X msg 91 327 Stopped.;
#X msg 22 327 Running!;
#X text 19 198 this runs on click;
#X obj 236 365 sel True False;
#X obj 236 339 prepend symbol;
#X msg 236 416 Animating!;
#X msg 312 416 Not anim'd.;
#X msg 196 416 1;
#X msg 177 380 0;
#X obj 22 300 t b b b b;
#X msg 169 234 1;
#X obj 169 259 prepend runrotation;
#X obj 93 300 t b b;
#X msg 203 234 0;
#X msg 376 244 1;
#X msg 410 244 0;
#X obj 376 270 prepend runanimation;
#X text 31 415 the 0/1 here for btn state;
#X obj 236 389 t b b;
#X obj 312 390 t b b b b;
#X obj 48 120 t f f f f;
#X obj 234 149 prepend setdefaultrpm;
#X obj 235 171 prepend setrpm;
#X obj 382 151 t f f;
#X obj 24 528 sel True False;
#X obj 24 502 prepend symbol;
#X obj 95 555 t b b;
#X obj 24 555 t b b;
#X msg 24 582 Reverse;
#X msg 93 581 Forward;
#X msg 178 552 -1;
#X msg 213 552 1;
#X floatatom 191 581 5 0 0 0 - - -;
#X obj 443 151 *;
#X obj 474 120 t b f;
#X text 558 92 (see revrs_spd below);
#X msg 140 501 False;
#X text 120 107 to ssliderRPM0 instead of rtextRPM0 \,;
#X text 120 117 to trigger the reverse calc too;
#X text 229 478 instead of loadbang here;
#X obj 167 305 bng 15 250 50 0 empty empty empty 17 7 0 10 -262144
-1 -1;
#X obj 396 381 delay 500;
#X text 404 353 somehow \, I need at least 500 ms delay here \,;
#X text 405 362 else there is a trail of speed not exactly zero;
#X msg 555 566 fitb 1;
#X text 119 95 must trigger separately here \, send last;
#X obj 503 525 t b b;
#X text 389 506 store for later;
#X obj 393 547 prepend set;
#X msg 393 597 /DISKPATHTO/tmp/tt_seqintf_song1_93.wav;
#X obj 393 625 prepend rwav;
#X obj 444 573 bng 15 250 50 0 empty empty empty 17 7 0 10 -262144
-1 -1;
#X obj 48 149 s ssliderRPM\$1;
#X obj 139 149 s rsliderRPM\$1;
#X obj 250 194 s rrotknobctrl\$1;
#X obj 382 95 r ssliderRPM\$1;
#X obj 382 180 s rtextRPM\$1;
#X obj 22 222 r sTogSpin\$1;
#X obj 33 359 s rTogSpin\$1;
#X obj 169 282 s rrotknobctrl\$1;
#X obj 376 292 s rrotknobctrl\$1;
#X obj 236 314 r sTogAnim\$1;
#X obj 247 449 s rTogAnim\$1;
#X obj 393 523 r wavfile\$1;
#X obj 509 672 s rimage\$1;
#X obj 24 477 r sTogRevrs\$1;
#X obj 35 616 s rTogRevrs\$1;
#X obj 191 607 s revrs_spd\$1;
#X obj 474 95 r revrs_spd\$1;
#X obj 72 29 s rkinitbang\$1;
#X obj 95 58 r rkinitbang\$1;
#X obj 503 504 r rkinitbang\$1;
#X obj 140 477 r rkinitbang\$1;
#X connect 0 0 2 0;
#X connect 2 0 81 0;
#X connect 3 1 4 0;
#X connect 4 0 32 0;
#X connect 6 0 2 0;
#X connect 10 0 21 0;
#X connect 10 1 24 0;
#X connect 11 0 10 0;
#X connect 12 0 70 0;
#X connect 13 0 70 0;
#X connect 15 0 30 0;
#X connect 15 1 31 0;
#X connect 16 0 15 0;
#X connect 17 0 74 0;
#X connect 18 0 74 0;
#X connect 19 0 74 0;
#X connect 20 0 70 0;
#X connect 21 0 13 0;
#X connect 21 1 17 0;
#X connect 21 2 19 0;
#X connect 21 3 22 0;
#X connect 22 0 23 0;
#X connect 23 0 71 0;
#X connect 24 0 12 0;
#X connect 24 1 25 0;
#X connect 25 0 23 0;
#X connect 26 0 28 0;
#X connect 27 0 28 0;
#X connect 28 0 72 0;
#X connect 30 0 17 0;
#X connect 30 1 26 0;
#X connect 31 0 18 0;
#X connect 31 1 53 0;
#X connect 31 2 20 0;
#X connect 31 3 24 0;
#X connect 32 0 64 0;
#X connect 32 1 65 0;
#X connect 32 2 34 0;
#X connect 32 3 33 0;
#X connect 33 0 66 0;
#X connect 34 0 66 0;
#X connect 35 0 68 0;
#X connect 35 1 34 0;
#X connect 36 0 39 0;
#X connect 36 1 38 0;
#X connect 37 0 36 0;
#X connect 38 0 41 0;
#X connect 38 1 43 0;
#X connect 39 0 40 0;
#X connect 39 1 42 0;
#X connect 40 0 78 0;
#X connect 41 0 78 0;
#X connect 42 0 44 0;
#X connect 43 0 44 0;
#X connect 44 0 79 0;
#X connect 45 0 35 0;
#X connect 46 0 45 0;
#X connect 46 1 45 1;
#X connect 48 0 37 0;
#X connect 52 0 24 0;
#X connect 53 0 27 0;
#X connect 56 0 76 0;
#X connect 58 0 63 0;
#X connect 58 1 56 0;
#X connect 60 0 61 0;
#X connect 61 0 62 0;
#X connect 62 0 76 0;
#X connect 63 0 61 0;
#X connect 67 0 45 0;
#X connect 69 0 11 0;
#X connect 73 0 16 0;
#X connect 75 0 60 0;
#X connect 77 0 37 0;
#X connect 80 0 46 0;
#X connect 82 0 3 0;
#X connect 83 0 58 0;
#X connect 84 0 48 0;
