#N canvas 36 71 626 487 10;
#X obj 26 25 inlet;
#X text 73 23 initialization bang;
#X obj 45 47 bng 15 250 50 0 empty empty empty 17 7 0 10 -262144 -1
-1;
#X text 212 30 note: there is no trigger int in PD \, only t float
;
#X text 213 52 http://lists.puredata.info/pipermail/pd-list/2000-12/001611.html
;
#X text 211 40 (`t i i` will give "bad type" \, but it will work);
#X msg 346 267 setvalue 93;
#X msg 365 245 settags 40 161 10;
#X msg 385 223 setangularrange -45 225;
#X msg 373 171 set setvalue \$1;
#X msg 373 130 93;
#X text 400 128 default BPM;
#X obj 311 198 t b b b;
#X msg 308 319 setvalue 93;
#X msg 159 230 setvalue;
#X msg 148 252 clear;
#X text 185 251 erase choices;
#X msg 102 328 setselection 0;
#X obj 80 203 t b b b b b;
#X text 193 328 (also w/out arg);
#X obj 25 127 t b b b b b;
#X text 53 310 dflt \; pattern;
#X msg 25 319 1;
#X obj 25 583 prepend setvalue;
#X floatatom 25 458 5 0 0 0 - - -;
#X text 62 457 BPM from knob;
#X floatatom 132 559 5 0 0 0 - - -;
#X obj 52 527 expr 1000*15/$f1;
#X text 54 543 16th note duration [msecs];
#X text 23 408 this runs "continuously";
#X text 22 419 (get BPM from rotary knob);
#X obj 235 491 sel True False;
#X obj 235 465 prepend symbol;
#X msg 304 545 Stopped.;
#X msg 235 545 Running!;
#X text 232 416 this runs on click;
#X obj 235 518 t b b b b;
#X obj 306 518 t b b;
#X obj 515 569 prepend set;
#X obj 515 465 prepend set;
#X msg 515 592 cbchange Song_2 1;
#X msg 515 488 1;
#X obj 26 668 route radsetstep;
#X floatatom 100 700 5 0 0 0 - - -;
#X text 30 682 step set by radiobtns;
#X text 214 208 erase dflt text \; (combobox \, \; not choice);
#X text 156 368 keep the name \; even if Choice now;
#X text 131 266 append idx as extra_data;
#X msg 133 284 append Song_1 0;
#X msg 116 305 append Song_2 1;
#X obj 515 549 t b a;
#X msg 515 613 \$2;
#X obj 515 443 t f f f;
#X obj 615 464 - 1;
#X obj 515 679 t f f;
#X text 565 626 reset to first patrn \; each time a song chosen;
#X obj 615 488 t f f;
#X obj 515 636 t b f f;
#X msg 423 610 0;
#X msg 515 658 1;
#X text 396 653 the spin is 1 to 2 \; so set to 1 here;
#X text 381 626 the choice is 0-based;
#X obj 25 484 t f f f;
#X obj 373 149 t f f f;
#X obj 26 70 s sqinitbang\$1;
#X obj 25 104 r sqinitbang\$1;
#X obj 376 289 s rknobcpln\$1;
#X obj 308 343 s rlednum\$1;
#X obj 155 355 s rcombobox\$1;
#X obj 25 344 s rTbPat\$1;
#X obj 25 437 r sknobcpln\$1;
#X obj 111 506 s nBPM\$1;
#X obj 52 559 s n16thDur\$1;
#X obj 25 608 s rlednum\$1;
#X obj 235 440 r sTogRunSq\$1;
#X obj 246 579 s rTogRunSq\$1;
#X obj 515 420 r sSpinPat\$1;
#X obj 546 488 s rTbPat\$1;
#X obj 642 513 v patnm\$1;
#X obj 615 535 s patnum\$1;
#X obj 515 528 r scombobox\$1;
#X obj 587 660 v sngnm\$1;
#X obj 568 682 s sngnum\$1;
#X obj 542 703 s rSpinPat\$1;
#X obj 515 726 s sSpinPat\$1;
#X obj 423 568 r sqinitbang\$1;
#X obj 26 644 r sseqintf\$1;
#X obj 26 700 s radstep\$1;
#X obj 559 216 tgl 15 0 empty empty empty 17 7 0 10 -262144 -1 -1 0
1;
#X obj 538 167 sel True False;
#X msg 538 189 1;
#X msg 578 188 0;
#X obj 538 146 prepend list;
#X obj 538 123 r sTogRunSq\$1;
#X obj 559 236 s nTogRunSq\$1;
#X obj 423 589 delay 10;
#X text 389 510 delay this init \; give time so arrays \; at start
are resized \; by python script;
#X connect 0 0 2 0;
#X connect 2 0 64 0;
#X connect 6 0 66 0;
#X connect 7 0 66 0;
#X connect 8 0 66 0;
#X connect 9 0 6 0;
#X connect 9 0 13 0;
#X connect 10 0 63 0;
#X connect 12 0 6 0;
#X connect 12 1 7 0;
#X connect 12 2 8 0;
#X connect 13 0 67 0;
#X connect 14 0 68 0;
#X connect 15 0 68 0;
#X connect 17 0 68 0;
#X connect 18 0 17 0;
#X connect 18 1 49 0;
#X connect 18 2 48 0;
#X connect 18 3 15 0;
#X connect 20 0 22 0;
#X connect 20 1 18 0;
#X connect 20 2 13 0;
#X connect 20 3 12 0;
#X connect 20 4 10 0;
#X connect 22 0 69 0;
#X connect 23 0 73 0;
#X connect 24 0 62 0;
#X connect 27 0 26 0;
#X connect 27 0 72 0;
#X connect 31 0 36 0;
#X connect 31 1 37 0;
#X connect 32 0 31 0;
#X connect 33 0 75 0;
#X connect 34 0 75 0;
#X connect 36 0 34 0;
#X connect 37 0 33 0;
#X connect 38 0 40 0;
#X connect 39 0 41 0;
#X connect 40 0 51 0;
#X connect 42 0 43 0;
#X connect 42 0 87 0;
#X connect 48 0 68 0;
#X connect 49 0 68 0;
#X connect 50 0 40 0;
#X connect 50 1 38 0;
#X connect 51 0 57 0;
#X connect 52 0 39 0;
#X connect 52 1 77 0;
#X connect 52 2 53 0;
#X connect 53 0 56 0;
#X connect 54 0 84 0;
#X connect 54 1 83 0;
#X connect 56 0 79 0;
#X connect 56 1 78 0;
#X connect 57 0 59 0;
#X connect 57 1 82 0;
#X connect 57 2 81 0;
#X connect 58 0 57 0;
#X connect 59 0 54 0;
#X connect 62 0 23 0;
#X connect 62 1 27 0;
#X connect 62 2 71 0;
#X connect 63 0 9 0;
#X connect 63 1 27 0;
#X connect 63 2 71 0;
#X connect 65 0 20 0;
#X connect 70 0 24 0;
#X connect 74 0 32 0;
#X connect 76 0 52 0;
#X connect 80 0 50 0;
#X connect 85 0 95 0;
#X connect 86 0 42 0;
#X connect 88 0 94 0;
#X connect 89 0 90 0;
#X connect 89 1 91 0;
#X connect 90 0 88 0;
#X connect 91 0 88 0;
#X connect 92 0 89 0;
#X connect 93 0 92 0;
#X connect 95 0 58 0;
