#N canvas 212 88 812 417 10;
#X obj 25 13 inlet;
#X text 62 29 initialization bang;
#X obj 25 36 bang;
#X obj 25 120 t b b;
#X msg 52 150 33;
#X text 381 132 this runs continuously;
#X obj 68 14 bng 15 250 50 0 empty empty empty 17 7 0 10 -262144 -1
-1;
#X text 211 17 note: there is no trigger int in PD \, only t float
;
#X text 212 39 http://lists.puredata.info/pipermail/pd-list/2000-12/001611.html
;
#X text 210 27 (`t i i` will give "bad type" \, but it will work);
#X obj 26 363 sel True False;
#X obj 26 337 prepend symbol;
#X msg 95 417 Stopped.;
#X msg 26 417 Running!;
#X text 23 288 this runs on click;
#X obj 240 455 sel True False;
#X obj 240 429 prepend symbol;
#X msg 240 506 Animating!;
#X msg 316 506 Not anim'd.;
#X msg 200 506 1;
#X msg 181 470 0;
#X obj 26 390 t b b b b;
#X msg 173 324 1;
#X obj 173 349 prepend runrotation;
#X obj 97 390 t b b;
#X msg 207 324 0;
#X msg 430 404 1;
#X msg 464 404 0;
#X obj 430 430 prepend runanimation;
#X text 35 505 the 0/1 here for btn state;
#X obj 240 479 t b b;
#X obj 316 480 t b b b b;
#X obj 52 180 t f f f f;
#X obj 228 212 prepend setdefaultrpm;
#X obj 229 241 prepend setrpm;
#X obj 386 211 t f f;
#X obj 28 618 sel True False;
#X obj 28 592 prepend symbol;
#X obj 99 645 t b b;
#X obj 28 645 t b b;
#X msg 28 672 Reverse;
#X msg 97 671 Forward;
#X msg 182 642 -1;
#X msg 217 642 1;
#X floatatom 195 671 5 0 0 0 - - -;
#X obj 447 211 *;
#X obj 480 179 t b f;
#X text 562 153 (see revrs_spd below);
#X msg 144 591 False;
#X text 124 167 to ssliderRPM0 instead of rtextRPM0 \,;
#X text 124 177 to trigger the reverse calc too;
#X text 412 338 instead of loadbang here;
#X obj 171 395 bng 15 250 50 0 empty empty empty 17 7 0 10 -262144
-1 -1;
#X obj 420 511 delay 500;
#X text 428 483 somehow \, I need at least 500 ms delay here \,;
#X text 429 492 else there is a trail of speed not exactly zero;
#X msg 219 806 fitb 1;
#X text 123 155 must trigger separately here \, send last;
#X obj 27 752 r wavfile;
#X obj 137 775 t b b;
#X text 23 736 store for later;
#X obj 27 777 prepend set;
#X obj 57 861 prepend rwav;
#X obj 38 813 bng 15 250 50 0 empty empty empty 17 7 0 10 -262144 -1
-1;
#X obj 361 794 change;
#X obj 406 794 change;
#X obj 453 794 change;
#X obj 500 794 change;
#X obj 596 793 change;
#X floatatom 361 818 5 0 0 0 - - -;
#X floatatom 406 818 5 0 0 0 - - -;
#X floatatom 453 818 5 0 0 0 - - -;
#X floatatom 500 818 5 0 0 0 - - -;
#X floatatom 549 818 5 0 0 0 - - -;
#X floatatom 596 818 5 0 0 0 - - -;
#X text 358 835 x \, y (pixels);
#X text 451 835 btnstate;
#X obj 502 845 t b f;
#X obj 386 890 expr if ($f1==0 && $f2==1 \, 1 \, 0);
#X msg 324 891 0;
#X text 321 854 must have \,;
#X text 321 907 to init;
#X text 321 915 calc later;
#X text 546 772 no \; change \; here;
#X obj 433 765 unpack f f f f f f f;
#X floatatom 664 817 5 0 0 0 - - -;
#X obj 664 793 nop;
#X text 547 834 hacked: xrel \, yrel \, xrelvel/f;
#X msg 323 367 False;
#X obj 406 180 / 10;
#X obj 69 201 * 10;
#X obj 69 221 t f f;
#X msg 57 837 /DISKPATHTO/tmp/4-4.wav;
#X obj 66 48 s rkinitbang\$1;
#X obj 25 97 r rkinitbang\$1;
#X obj 22 249 s ssliderRPM\$1;
#X obj 113 249 s rsliderRPM\$1;
#X obj 244 264 s rrotknobctrl\$1;
#X obj 386 155 r ssliderRPM\$1;
#X obj 386 240 s rtextRPM\$1;
#X obj 480 154 r revrs_spd\$1;
#X obj 195 697 s revrs_spd\$1;
#X obj 26 312 r sTogSpin\$1;
#X obj 37 451 s rTogSpin\$1;
#X obj 173 372 s rrotknobctrl\$1;
#X obj 323 343 r rkinitbang\$1;
#X obj 240 404 r sTogAnim\$1;
#X obj 251 539 s rTogAnim\$1;
#X obj 430 452 s rrotknobctrl\$1;
#X obj 144 567 r rkinitbang\$1;
#X obj 28 567 r sTogRevrs\$1;
#X obj 39 706 s rTogRevrs\$1;
#X obj 137 734 r rkinitbang\$1;
#X text 85 820 4-4: just 4 ticks wav;
#X obj 103 912 s rimage0\$1;
#X obj 218 869 t a a;
#X obj 183 912 s rimage1\$1;
#X obj 57 883 t a a;
#X obj 433 740 r simage0\$1;
#X obj 386 916 s scxclk\$1;
#X obj 324 870 lbang;
#X obj 664 858 s scxrf\$1;
#X obj 550 862 s scxrel\$1;
#X text 373 716 Only the track 1 image will be 'scrub'able:;
#X obj 186 754 r rstimgtick\$1;
#X connect 0 0 2 0;
#X connect 2 0 93 0;
#X connect 3 1 4 0;
#X connect 4 0 32 0;
#X connect 6 0 2 0;
#X connect 10 0 21 0;
#X connect 10 1 24 0;
#X connect 11 0 10 0;
#X connect 12 0 103 0;
#X connect 13 0 103 0;
#X connect 15 0 30 0;
#X connect 15 1 31 0;
#X connect 16 0 15 0;
#X connect 17 0 107 0;
#X connect 18 0 107 0;
#X connect 19 0 107 0;
#X connect 20 0 103 0;
#X connect 21 0 13 0;
#X connect 21 1 17 0;
#X connect 21 2 19 0;
#X connect 21 3 22 0;
#X connect 22 0 23 0;
#X connect 23 0 104 0;
#X connect 24 0 12 0;
#X connect 24 1 25 0;
#X connect 25 0 23 0;
#X connect 26 0 28 0;
#X connect 27 0 28 0;
#X connect 28 0 108 0;
#X connect 30 0 17 0;
#X connect 30 1 26 0;
#X connect 31 0 18 0;
#X connect 31 1 53 0;
#X connect 31 2 20 0;
#X connect 31 3 24 0;
#X connect 32 1 90 0;
#X connect 32 2 34 0;
#X connect 32 3 33 0;
#X connect 33 0 97 0;
#X connect 34 0 97 0;
#X connect 35 0 99 0;
#X connect 35 1 34 0;
#X connect 36 0 39 0;
#X connect 36 1 38 0;
#X connect 37 0 36 0;
#X connect 38 0 41 0;
#X connect 38 1 43 0;
#X connect 39 0 40 0;
#X connect 39 1 42 0;
#X connect 40 0 111 0;
#X connect 41 0 111 0;
#X connect 42 0 44 0;
#X connect 43 0 44 0;
#X connect 44 0 101 0;
#X connect 45 0 35 0;
#X connect 46 0 45 0;
#X connect 46 1 45 1;
#X connect 48 0 37 0;
#X connect 52 0 24 0;
#X connect 53 0 27 0;
#X connect 56 0 115 0;
#X connect 58 0 61 0;
#X connect 59 0 92 0;
#X connect 59 1 56 0;
#X connect 62 0 117 0;
#X connect 63 0 92 0;
#X connect 64 0 69 0;
#X connect 65 0 70 0;
#X connect 66 0 71 0;
#X connect 67 0 72 0;
#X connect 68 0 74 0;
#X connect 71 0 78 0;
#X connect 72 0 77 0;
#X connect 73 0 122 0;
#X connect 77 0 71 0;
#X connect 77 1 78 1;
#X connect 78 0 119 0;
#X connect 79 0 119 0;
#X connect 84 0 64 0;
#X connect 84 1 65 0;
#X connect 84 2 66 0;
#X connect 84 3 67 0;
#X connect 84 4 73 0;
#X connect 84 5 68 0;
#X connect 84 6 86 0;
#X connect 85 0 121 0;
#X connect 86 0 85 0;
#X connect 88 0 16 0;
#X connect 89 0 45 0;
#X connect 90 0 91 0;
#X connect 91 0 95 0;
#X connect 91 1 96 0;
#X connect 92 0 62 0;
#X connect 94 0 3 0;
#X connect 98 0 89 0;
#X connect 100 0 46 0;
#X connect 102 0 11 0;
#X connect 105 0 88 0;
#X connect 106 0 16 0;
#X connect 109 0 48 0;
#X connect 110 0 37 0;
#X connect 112 0 59 0;
#X connect 115 0 114 0;
#X connect 115 1 116 0;
#X connect 117 0 114 0;
#X connect 117 1 116 0;
#X connect 118 0 84 0;
#X connect 120 0 79 0;
#X connect 124 0 59 0;
