#N canvas 148 94 743 479 10;
#X text 18 10 handle sound sample loading on pmenu actions;
#X obj 30 60 r audiodir;
#X msg 339 198 cymb_06.wav;
#X obj 30 82 prepend set;
#X msg 30 125 /DISKPATHTO/smp;
#X text 231 91 make sure it does not "Save Contents?";
#X text 229 61 make sure -resize \, else file is cropped to length
of array1;
#X text 229 50 for stereo: 'read -resize (\$1) channelL channelR';
#X text 230 78 array needs to be "Put" separately \,;
#X msg 400 247 hhat_03.wav;
#X msg 522 354 snar_05.wav;
#X obj 195 137 bng 15 250 50 0 empty empty empty 17 7 0 10 -262144
-1 -1;
#X obj 30 103 t a b;
#X msg 339 423 orch_01.wav;
#X obj 218 137 delay 100;
#X msg 583 401 kick_01.wav;
#X obj 195 160 t b;
#X msg 195 180 0;
#X text 13 158 sngnum is set on sqinitbang \; so later than these 100
ms \; so no need to init on \; loadbang here \, keep to remind;
#X msg 461 302 clap_03.wav;
#X obj 195 201 s sngnum\$1;
#X obj 161 314 r chc11\$1;
#X obj 184 334 r chc12\$1;
#X obj 207 354 r chc13\$1;
#X obj 231 314 r chc14\$1;
#X obj 254 334 r chc15\$1;
#X obj 278 354 r chc21\$1;
#X obj 111 404 s chc11\$1;
#X obj 134 424 s chc12\$1;
#X obj 157 444 s chc13\$1;
#X obj 181 404 s chc14\$1;
#X obj 204 424 s chc15\$1;
#X obj 228 444 s chc21\$1;
#X text 18 20 instantiate as [.. deck-id d-id+1]:;
#X text 18 30 [ttsq_SndSamplesMenuLoader 0 1];
#X obj 339 171 ttsq_SmpLd \$2 1 1;
#X obj 400 225 ttsq_SmpLd \$2 1 2;
#X obj 461 281 ttsq_SmpLd \$2 1 3;
#X obj 522 333 ttsq_SmpLd \$2 1 4;
#X obj 583 379 ttsq_SmpLd \$2 1 5;
#X obj 339 399 ttsq_SmpLd \$2 2 1;
#X obj 339 144 r chc11\$1;
#X obj 400 144 r chc12\$1;
#X obj 461 144 r chc13\$1;
#X obj 522 144 r chc14\$1;
#X obj 583 144 r chc15\$1;
#X obj 645 144 r chc21\$1;
#X text 60 246 A -> 1.1 | S -> 1.2 | D -> 1.3 \; F -> 1.4 | G -> 1.5
| H -> 2.*;
#X obj 206 290 inlet;
#X obj 166 290 inlet;
#X obj 126 290 inlet;
#X obj 86 290 inlet;
#X obj 46 290 inlet;
#X obj 6 290 inlet;
#N canvas 212 117 676 377 sampleMenuManager 0;
#X obj 198 398 t b a;
#X obj 216 419 t b a;
#X floatatom 430 531 5 0 0 0 - - -;
#X text 336 856 now this triggers all fields - should \; prob use [change]
when setting indiv \, \; settings later!;
#X obj 317 531 prepend set list;
#X obj 466 531 t b f f;
#X msg 340 787 list symbol cymb_06.wav hhat_03.wav clap_03.wav snar_05.wav
kick_01.wav orch_01.wav;
#X text 350 771 current list;
#X obj 359 726 t b a;
#X obj 361 750 prepend set list;
#X obj 317 507 t b a;
#X text 707 777 (this does not print pck when \; clicked - but \, chc1/2
update \; which is what matters);
#X text 75 446 leftmost s in [pack] \; is isolated hot inlet;
#X obj 421 166 inlet;
#X obj 471 166 inlet;
#X text 418 121 this just to initiate the state at loadbang - they
should not interfere with the rest. putting them as inlets to emphasize
feedback - and to allow extern naming;
#X text 8 2 6 samples' bank menu manager;
#X obj 521 166 inlet;
#X obj 571 166 inlet;
#X obj 621 166 inlet;
#X obj 671 166 inlet;
#X obj 208 458 pack s s s s s s s;
#X obj 233 398 t b a;
#X obj 251 419 t b a;
#X obj 268 398 t b a;
#X obj 286 419 t b a;
#X obj 317 580 demux 1 2;
#X obj 454 580 demux 1 2;
#X text 261 607 sample bank \; song 1;
#X text 351 655 sample bank \; song 2;
#X obj 208 877 unpack s s s s s s s;
#X obj 216 914 outlet;
#X obj 266 914 outlet;
#X obj 316 914 outlet;
#X obj 366 914 outlet;
#X obj 416 914 outlet;
#X obj 466 914 outlet;
#X text 8 12 moving the pmenus here \, as they need \; to interact
with the engine;
#X obj 35 265 tof/pmenu 1 1 black white red;
#X obj 45 285 tof/pmenu 1 1 black white red;
#X obj 55 305 tof/pmenu 1 1 black white red;
#X obj 65 325 tof/pmenu 1 1 black white red;
#X obj 75 345 tof/pmenu 1 1 black white red;
#X obj 85 365 tof/pmenu 1 1 black white red;
#X msg 24 200 add \$1;
#X msg 75 201 clear;
#X obj 75 178 r clrmenu;
#X obj 24 156 r audfiles;
#X obj 24 230 t a a a a a a;
#X obj 24 177 symbol;
#X text 284 111 A S D F G H;
#X text 201 146 A -> 1.1 | S -> 1.2 | D -> 1.3 \; F -> 1.4 | G -> 1.5
| H -> 2.*;
#X obj 421 243 symbol;
#X obj 471 243 symbol;
#X obj 521 243 symbol;
#X obj 571 243 symbol;
#X obj 621 243 symbol;
#X obj 671 243 symbol;
#X obj 421 188 t a a;
#X obj 471 188 t a a;
#X obj 521 188 t a a;
#X obj 571 189 t a a;
#X obj 621 188 t a a;
#X obj 671 188 t a a;
#N canvas 112 363 508 106 prepsetSix 0;
#X obj 21 16 inlet;
#X obj 101 16 inlet;
#X obj 181 16 inlet;
#X obj 261 15 inlet;
#X obj 341 15 inlet;
#X obj 421 15 inlet;
#X obj 21 38 prepend set;
#X obj 101 38 prepend set;
#X obj 181 38 prepend set;
#X obj 261 38 prepend set;
#X obj 341 37 prepend set;
#X obj 421 37 prepend set;
#X obj 21 66 outlet;
#X obj 101 67 outlet;
#X obj 181 66 outlet;
#X obj 261 65 outlet;
#X obj 341 65 outlet;
#X obj 421 65 outlet;
#X connect 0 0 6 0;
#X connect 1 0 7 0;
#X connect 2 0 8 0;
#X connect 3 0 9 0;
#X connect 4 0 10 0;
#X connect 5 0 11 0;
#X connect 6 0 12 0;
#X connect 7 0 13 0;
#X connect 8 0 14 0;
#X connect 9 0 15 0;
#X connect 10 0 16 0;
#X connect 11 0 17 0;
#X restore 280 233 pd prepsetSix;
#X msg 602 571 cymb_06.wav hhat_02.wav clap_03.wav snar_04.wav kick_01.wav
orch_01.wav;
#X text 416 263 Somehow \, now the send/receive vars have "symbol"
prepended automatically - probably because I now use [symbol] instead
of [prepend symbol] - which is lucky in this case \, because at the
samplers \, I can now use [nchange s] directly (without [prepend symbol]
\, as previously in the test file);
#X msg 244 103 key;
#X msg 244 127 sel 65 83 68 70 71 72;
#X obj 347 178 inlet;
#X text 253 11 as a subpatch of an abstraction now \, it inherits \$1
and \$2 from the parent!;
#X text 241 47 this with [key] is best set from outside \; better to
have a single key object \, and \; [sel] can only be set with inst.
args! \; so easiest to propagate via inlets;
#X obj 307 178 inlet;
#X obj 267 178 inlet;
#X obj 227 178 inlet;
#X obj 187 178 inlet;
#X obj 147 178 inlet;
#X obj 430 507 r sngnum\$1;
#X obj 301 624 s rSng1bank\$1;
#X obj 301 643 r sSng1bank\$1;
#X obj 392 673 s rSng2bank\$1;
#X obj 392 692 r sSng2bank\$1;
#X connect 0 0 21 0;
#X connect 0 1 21 1;
#X connect 1 0 21 0;
#X connect 1 1 21 2;
#X connect 2 0 5 0;
#X connect 4 0 26 0;
#X connect 5 0 27 0;
#X connect 5 1 26 1;
#X connect 5 2 27 1;
#X connect 6 0 30 0;
#X connect 8 0 6 0;
#X connect 8 1 9 0;
#X connect 9 0 6 0;
#X connect 10 0 27 0;
#X connect 10 1 4 0;
#X connect 13 0 58 0;
#X connect 14 0 59 0;
#X connect 17 0 60 0;
#X connect 18 0 61 0;
#X connect 19 0 62 0;
#X connect 20 0 63 0;
#X connect 21 0 10 0;
#X connect 21 0 30 0;
#X connect 22 0 21 0;
#X connect 22 1 21 3;
#X connect 23 0 21 0;
#X connect 23 1 21 4;
#X connect 24 0 21 0;
#X connect 24 1 21 5;
#X connect 25 0 21 0;
#X connect 25 1 21 6;
#X connect 26 0 78 0;
#X connect 26 1 80 0;
#X connect 27 0 78 0;
#X connect 27 1 80 0;
#X connect 30 1 31 0;
#X connect 30 2 32 0;
#X connect 30 3 33 0;
#X connect 30 4 34 0;
#X connect 30 5 35 0;
#X connect 30 6 36 0;
#X connect 38 1 0 0;
#X connect 39 1 1 0;
#X connect 40 1 22 0;
#X connect 41 1 23 0;
#X connect 42 1 24 0;
#X connect 43 1 25 0;
#X connect 44 0 48 0;
#X connect 45 0 48 0;
#X connect 46 0 45 0;
#X connect 47 0 49 0;
#X connect 48 0 38 0;
#X connect 48 1 39 0;
#X connect 48 2 40 0;
#X connect 48 3 41 0;
#X connect 48 4 42 0;
#X connect 48 5 43 0;
#X connect 49 0 44 0;
#X connect 52 0 21 1;
#X connect 53 0 21 2;
#X connect 54 0 21 3;
#X connect 55 0 21 4;
#X connect 56 0 21 5;
#X connect 57 0 21 6;
#X connect 58 0 52 0;
#X connect 58 1 64 0;
#X connect 59 0 53 0;
#X connect 59 1 64 1;
#X connect 60 0 54 0;
#X connect 60 1 64 2;
#X connect 61 0 55 0;
#X connect 61 1 64 3;
#X connect 62 0 56 0;
#X connect 62 1 64 4;
#X connect 63 0 57 0;
#X connect 63 1 64 5;
#X connect 64 0 38 0;
#X connect 64 1 39 0;
#X connect 64 2 40 0;
#X connect 64 3 41 0;
#X connect 64 4 42 0;
#X connect 64 5 43 0;
#X connect 67 0 68 0;
#X connect 69 0 43 0;
#X connect 72 0 42 0;
#X connect 73 0 41 0;
#X connect 74 0 40 0;
#X connect 75 0 39 0;
#X connect 76 0 38 0;
#X connect 77 0 2 0;
#X connect 79 0 8 0;
#X connect 81 0 8 0;
#X restore 71 379 pd sampleMenuManager ___________;
#X text 10 269 get [key]->[sel] bangs from above:;
#X connect 1 0 3 0;
#X connect 3 0 12 0;
#X connect 11 0 14 0;
#X connect 12 0 4 0;
#X connect 12 1 11 0;
#X connect 14 0 16 0;
#X connect 16 0 17 0;
#X connect 21 0 54 6;
#X connect 22 0 54 7;
#X connect 23 0 54 8;
#X connect 24 0 54 9;
#X connect 25 0 54 10;
#X connect 26 0 54 11;
#X connect 35 0 2 0;
#X connect 36 0 9 0;
#X connect 37 0 19 0;
#X connect 38 0 10 0;
#X connect 39 0 15 0;
#X connect 40 0 13 0;
#X connect 41 0 35 0;
#X connect 42 0 36 0;
#X connect 43 0 37 0;
#X connect 44 0 38 0;
#X connect 45 0 39 0;
#X connect 46 0 40 0;
#X connect 48 0 54 5;
#X connect 49 0 54 4;
#X connect 50 0 54 3;
#X connect 51 0 54 2;
#X connect 52 0 54 1;
#X connect 53 0 54 0;
#X connect 54 0 27 0;
#X connect 54 1 28 0;
#X connect 54 2 29 0;
#X connect 54 3 30 0;
#X connect 54 4 31 0;
#X connect 54 5 32 0;
