#N canvas 24 90 1000 400 10;
#X text 18 20 instantiate as [.. deck-id]:;
#X text 18 30 [ttsq_seqTrkMixer~ 0];
#X text 18 10 sequencer two track (stereo) mixer and fader handler
;
#X obj 22 176 inlet~;
#X text 70 174 in 1Left;
#X obj 142 176 inlet~;
#X text 190 174 in 1Right;
#X obj 304 176 inlet~;
#X obj 424 176 inlet~;
#X text 352 174 in 2Left;
#X text 472 175 in 2Right;
#X obj 172 346 outlet~;
#X text 222 344 out Left;
#X obj 292 346 outlet~;
#X text 342 344 out Right;
#X floatatom 494 362 5 0 0 0 - - -;
#X floatatom 580 362 5 0 0 0 - - -;
#X text 34 119 just init vals;
#X msg 215 79 95;
#X obj 494 384 / 100;
#X obj 580 384 / 100;
#X obj 64 259 *~;
#X obj 188 259 *~;
#X obj 294 259 *~;
#X obj 418 259 *~;
#X obj 172 308 +~;
#X obj 291 308 +~;
#X obj 255 55 r sqinitbang\$1;
#X obj 229 104 s rsqvoltr1\$1;
#X obj 145 104 s rsqvoltr0\$1;
#X obj 91 105 s itr1\$1;
#X obj 37 105 s itr0\$1;
#X obj 79 235 r sqtr0\$1f;
#X obj 203 235 r sqtr0\$1f;
#X obj 309 235 r sqtr1\$1f;
#X obj 434 235 r sqtr1\$1f;
#X obj 494 297 r ssqvoltr0\$1;
#X obj 580 297 r ssqvoltr1\$1;
#X obj 504 320 r itr0\$1;
#X obj 590 320 r itr1\$1;
#X obj 494 406 s sqtr0\$1f;
#X obj 580 406 s sqtr1\$1f;
#X obj 608 174 inlet;
#X text 645 159 channel scaling factor \; from crossfader (mixer) \;
range [0:1];
#X obj 712 276 *;
#X obj 784 276 *;
#X floatatom 712 301 5 0 0 0 - - -;
#X floatatom 784 301 5 0 0 0 - - -;
#X obj 704 326 s rsqvoltr0\$1;
#X obj 788 326 s rsqvoltr1\$1;
#X obj 701 215 r ssqvoltr0\$1;
#X obj 787 215 r ssqvoltr1\$1;
#X text 685 257 just for visual indication;
#X obj 721 237 r itr0\$1;
#X obj 807 237 r itr1\$1;
#X connect 3 0 21 0;
#X connect 5 0 22 0;
#X connect 7 0 23 0;
#X connect 8 0 24 0;
#X connect 15 0 19 0;
#X connect 16 0 20 0;
#X connect 18 0 28 0;
#X connect 18 0 29 0;
#X connect 18 0 30 0;
#X connect 18 0 31 0;
#X connect 19 0 40 0;
#X connect 20 0 41 0;
#X connect 21 0 25 0;
#X connect 22 0 26 0;
#X connect 23 0 25 1;
#X connect 24 0 26 1;
#X connect 25 0 11 0;
#X connect 26 0 13 0;
#X connect 27 0 18 0;
#X connect 32 0 21 1;
#X connect 33 0 22 1;
#X connect 34 0 23 1;
#X connect 35 0 24 1;
#X connect 36 0 15 0;
#X connect 37 0 16 0;
#X connect 38 0 15 0;
#X connect 39 0 16 0;
#X connect 42 0 44 0;
#X connect 42 0 45 0;
#X connect 44 0 46 0;
#X connect 45 0 47 0;
#X connect 46 0 48 0;
#X connect 47 0 49 0;
#X connect 50 0 44 1;
#X connect 51 0 45 1;
#X connect 53 0 44 1;
#X connect 54 0 45 1;
