#N canvas 27 108 955 491 10;
#X text 18 30 instantiate as [.. deck-id d-id+1 track-id(1-based)]:
;
#X text 18 10 "classic" (triggered) sequencer engine (w v \, t tables):
;
#X text 18 20 "Track 1"=samplemap audioeng (was [pd AudioEngineTr1])
;
#X obj 25 398 *~;
#X obj 65 398 vline~;
#X obj 65 296 vline~;
#X obj 25 326 tabread4~ snd\$2-\$3-1L;
#X floatatom 532 39 5 0 0 0 - - -;
#X floatatom 204 108 5 0 0 0 - - -;
#X floatatom 362 131 5 0 0 0 - - -;
#X obj 292 109 tabread \$2-\$3-1-tseq;
#X obj 458 19 pddp/dsp;
#X obj 254 279 scope~ 130 130 256 3 100 0 12000 0 0 0 0 102 255 51
135 135 135 0;
#X obj 206 159 s v1\$3\$2;
#X obj 242 117 r vgt\$1;
#X obj 206 138 list append;
#X obj 65 376 r v1\$3\$2;
#X obj 292 137 sel 1;
#X obj 292 159 s t1\$3\$2;
#X obj 38 206 r t1\$3\$2;
#X floatatom 205 227 12 0 0 0 - - -;
#X obj 126 227 r len\$2-\$3-1;
#X obj 95 206 r ssz\$2-\$3-1;
#X floatatom 174 206 12 0 0 0 - - -;
#X obj 65 249 pack f f f;
#X text 35 176 just a \; bang;
#X obj 115 346 tabread4~ snd\$2-\$3-1R;
#X obj 115 398 *~;
#X obj 155 398 vline~;
#X obj 155 376 r v1\$3\$2;
#X obj 15 220 bng 15 250 50 0 empty empty empty 17 7 0 10 -262144 -1
-1;
#X msg 305 234 range 0 12000;
#X msg 330 254 range 0 1;
#X obj 654 455 outlet~;
#X obj 744 455 outlet~;
#X msg 65 272 0 \, \$2 \$3;
#X obj 442 117 r vgt\$1;
#X obj 406 138 list append;
#X obj 492 137 sel 1;
#X obj 444 86 tabread \$2-\$3-2-vseq;
#X obj 492 109 tabread \$2-\$3-2-tseq;
#X obj 406 159 s v2\$3\$2;
#X obj 492 159 s t2\$3\$2;
#X obj 632 117 r vgt\$1;
#X obj 596 138 list append;
#X obj 682 137 sel 1;
#X obj 634 86 tabread \$2-\$3-3-vseq;
#X obj 682 109 tabread \$2-\$3-3-tseq;
#X obj 682 159 s t3\$3\$2;
#X obj 596 159 s v3\$3\$2;
#X obj 822 117 r vgt\$1;
#X obj 786 138 list append;
#X obj 872 137 sel 1;
#X obj 824 86 tabread \$2-\$3-4-vseq;
#X obj 872 109 tabread \$2-\$3-4-tseq;
#X obj 786 159 s v4\$3\$2;
#X obj 872 159 s t4\$3\$2;
#X obj 1012 117 r vgt\$1;
#X obj 976 138 list append;
#X obj 1062 137 sel 1;
#X obj 1014 86 tabread \$2-\$3-5-vseq;
#X obj 1062 109 tabread \$2-\$3-5-tseq;
#X obj 976 159 s v5\$3\$2;
#X obj 1062 159 s t5\$3\$2;
#X obj 632 52 t f f f f f f f f f f;
#X obj 405 398 *~;
#X obj 445 398 vline~;
#X obj 445 296 vline~;
#X obj 445 249 pack f f f;
#X obj 495 398 *~;
#X obj 535 398 vline~;
#X obj 395 220 bng 15 250 50 0 empty empty empty 17 7 0 10 -262144
-1 -1;
#X msg 445 272 0 \, \$2 \$3;
#X obj 475 206 r ssz\$2-\$3-2;
#X obj 418 206 r t2\$3\$2;
#X obj 445 376 r v2\$3\$2;
#X obj 535 376 r v2\$3\$2;
#X obj 405 326 tabread4~ snd\$2-\$3-2L;
#X obj 495 346 tabread4~ snd\$2-\$3-2R;
#X obj 625 398 *~;
#X obj 665 398 vline~;
#X obj 665 296 vline~;
#X obj 665 249 pack f f f;
#X obj 715 398 *~;
#X obj 755 398 vline~;
#X obj 615 220 bng 15 250 50 0 empty empty empty 17 7 0 10 -262144
-1 -1;
#X msg 665 272 0 \, \$2 \$3;
#X obj 638 206 r t3\$3\$2;
#X obj 695 206 r ssz\$2-\$3-3;
#X obj 726 227 r len\$2-\$3-3;
#X obj 625 326 tabread4~ snd\$2-\$3-3L;
#X obj 715 346 tabread4~ snd\$2-\$3-3R;
#X obj 665 376 r v3\$3\$2;
#X obj 755 376 r v3\$3\$2;
#X obj 845 398 *~;
#X obj 885 398 vline~;
#X obj 885 296 vline~;
#X obj 885 249 pack f f f;
#X obj 935 398 *~;
#X obj 975 398 vline~;
#X obj 835 220 bng 15 250 50 0 empty empty empty 17 7 0 10 -262144
-1 -1;
#X msg 885 272 0 \, \$2 \$3;
#X obj 858 206 r t4\$3\$2;
#X obj 915 206 r ssz\$2-\$3-4;
#X obj 946 227 r len\$2-\$3-4;
#X obj 845 326 tabread4~ snd\$2-\$3-4L;
#X obj 935 346 tabread4~ snd\$2-\$3-4R;
#X obj 885 376 r v4\$3\$2;
#X obj 975 376 r v4\$3\$2;
#X obj 1065 398 *~;
#X obj 1105 398 vline~;
#X obj 1105 296 vline~;
#X obj 1105 249 pack f f f;
#X obj 1155 398 *~;
#X obj 1195 398 vline~;
#X obj 1055 221 bng 15 250 50 0 empty empty empty 17 7 0 10 -262144
-1 -1;
#X msg 1105 272 0 \, \$2 \$3;
#X obj 1078 206 r t5\$3\$2;
#X obj 1135 206 r ssz\$2-\$3-5;
#X obj 1167 227 r len\$2-\$3-5;
#X obj 1065 326 tabread4~ snd\$2-\$3-5L;
#X obj 1155 346 tabread4~ snd\$2-\$3-5R;
#X obj 1105 376 r v5\$3\$2;
#X obj 1195 376 r v5\$3\$2;
#X floatatom 542 141 5 0 0 0 - - -;
#X msg 255 254 bufsize 100;
#X obj 318 205 lbang;
#X obj 506 227 r len\$2-\$3-2;
#X text 22 74 v/t125 -> v/t521 \; was: deck-track-notenum \; now: notenum-track-deck
\; (deck: 1-based);
#X obj 542 19 r curstep\$1;
#X obj 244 86 tabread \$2-\$3-1-vseq;
#X text 18 40 [ttsq_clasSqAudEngTr1_smap 0 1 1];
#X obj 654 31 spigot;
#X obj 663 10 r csqEnabled\$1;
#X connect 3 0 33 0;
#X connect 4 0 3 1;
#X connect 5 0 6 0;
#X connect 5 0 26 0;
#X connect 5 0 12 0;
#X connect 6 0 3 0;
#X connect 10 0 9 0;
#X connect 10 0 17 0;
#X connect 14 0 15 1;
#X connect 15 0 13 0;
#X connect 16 0 4 0;
#X connect 17 0 18 0;
#X connect 19 0 24 0;
#X connect 21 0 20 0;
#X connect 21 0 24 2;
#X connect 22 0 23 0;
#X connect 22 0 24 1;
#X connect 24 0 35 0;
#X connect 26 0 27 0;
#X connect 27 0 34 0;
#X connect 28 0 27 1;
#X connect 29 0 28 0;
#X connect 30 0 24 0;
#X connect 31 0 12 0;
#X connect 32 0 12 0;
#X connect 35 0 5 0;
#X connect 36 0 37 1;
#X connect 37 0 41 0;
#X connect 38 0 42 0;
#X connect 39 0 37 0;
#X connect 40 0 38 0;
#X connect 40 0 124 0;
#X connect 43 0 44 1;
#X connect 44 0 49 0;
#X connect 45 0 48 0;
#X connect 46 0 44 0;
#X connect 47 0 45 0;
#X connect 50 0 51 1;
#X connect 51 0 55 0;
#X connect 52 0 56 0;
#X connect 53 0 51 0;
#X connect 54 0 52 0;
#X connect 57 0 58 1;
#X connect 58 0 62 0;
#X connect 59 0 63 0;
#X connect 60 0 58 0;
#X connect 61 0 59 0;
#X connect 64 0 130 0;
#X connect 64 1 10 0;
#X connect 64 2 39 0;
#X connect 64 3 40 0;
#X connect 64 4 46 0;
#X connect 64 5 47 0;
#X connect 64 6 53 0;
#X connect 64 7 54 0;
#X connect 64 8 60 0;
#X connect 64 9 61 0;
#X connect 65 0 33 0;
#X connect 66 0 65 1;
#X connect 67 0 77 0;
#X connect 67 0 78 0;
#X connect 68 0 72 0;
#X connect 69 0 34 0;
#X connect 70 0 69 1;
#X connect 71 0 68 0;
#X connect 72 0 67 0;
#X connect 73 0 68 1;
#X connect 74 0 68 0;
#X connect 75 0 66 0;
#X connect 76 0 70 0;
#X connect 77 0 65 0;
#X connect 78 0 69 0;
#X connect 79 0 33 0;
#X connect 80 0 79 1;
#X connect 81 0 90 0;
#X connect 81 0 91 0;
#X connect 82 0 86 0;
#X connect 83 0 34 0;
#X connect 84 0 83 1;
#X connect 85 0 82 0;
#X connect 86 0 81 0;
#X connect 87 0 82 0;
#X connect 88 0 82 1;
#X connect 89 0 82 2;
#X connect 90 0 79 0;
#X connect 91 0 83 0;
#X connect 92 0 80 0;
#X connect 93 0 84 0;
#X connect 94 0 33 0;
#X connect 95 0 94 1;
#X connect 96 0 105 0;
#X connect 96 0 106 0;
#X connect 97 0 101 0;
#X connect 98 0 34 0;
#X connect 99 0 98 1;
#X connect 100 0 97 0;
#X connect 101 0 96 0;
#X connect 102 0 97 0;
#X connect 103 0 97 1;
#X connect 104 0 97 2;
#X connect 105 0 94 0;
#X connect 106 0 98 0;
#X connect 107 0 95 0;
#X connect 108 0 99 0;
#X connect 109 0 33 0;
#X connect 110 0 109 1;
#X connect 111 0 120 0;
#X connect 111 0 121 0;
#X connect 112 0 116 0;
#X connect 113 0 34 0;
#X connect 114 0 113 1;
#X connect 115 0 112 0;
#X connect 116 0 111 0;
#X connect 117 0 112 0;
#X connect 118 0 112 1;
#X connect 119 0 112 2;
#X connect 120 0 109 0;
#X connect 121 0 113 0;
#X connect 122 0 110 0;
#X connect 123 0 114 0;
#X connect 125 0 12 0;
#X connect 126 0 125 0;
#X connect 126 0 31 0;
#X connect 127 0 68 2;
#X connect 129 0 7 0;
#X connect 129 0 132 0;
#X connect 130 0 8 0;
#X connect 130 0 15 0;
#X connect 132 0 64 0;
#X connect 133 0 132 1;
