#N canvas 66 49 955 491 10;
#X text 18 30 instantiate as [.. deck-id d-id+1 track-id(1-based)]:
;
#X text 18 10 "classic" (triggered) sequencer engine (w v \, t tables):
;
#X obj 25 488 *~;
#X obj 65 488 vline~;
#X obj 25 416 tabread4~ snd\$2-\$3-1L;
#X floatatom 532 39 5 0 0 0 - - -;
#X floatatom 204 108 5 0 0 0 - - -;
#X floatatom 362 131 5 0 0 0 - - -;
#X obj 292 109 tabread \$2-\$3-1-tseq;
#X obj 458 19 pddp/dsp;
#X obj 254 349 scope~ 130 130 256 3 100 0 12000 0 0 0 0 102 255 51
135 135 135 0;
#X obj 206 159 s v1\$3\$2;
#X obj 242 117 r vgt\$1;
#X obj 206 138 list append;
#X obj 65 466 r v1\$3\$2;
#X obj 292 137 sel 1;
#X obj 292 159 s t1\$3\$2;
#X obj 38 276 r t1\$3\$2;
#X floatatom 205 297 12 0 0 0 - - -;
#X obj 126 297 r len\$2-\$3-1;
#X obj 95 276 r ssz\$2-\$3-1;
#X floatatom 174 276 12 0 0 0 - - -;
#X obj 65 319 pack f f f;
#X text 35 246 just a \; bang;
#X obj 115 436 tabread4~ snd\$2-\$3-1R;
#X obj 115 488 *~;
#X obj 155 488 vline~;
#X obj 155 466 r v1\$3\$2;
#X obj 15 290 bng 15 250 50 0 empty empty empty 17 7 0 10 -262144 -1
-1;
#X msg 305 304 range 0 12000;
#X msg 330 324 range 0 1;
#X obj 654 545 outlet~;
#X obj 744 545 outlet~;
#X msg 65 342 0 \, \$2 \$3;
#X obj 442 117 r vgt\$1;
#X obj 406 138 list append;
#X obj 492 137 sel 1;
#X obj 444 86 tabread \$2-\$3-2-vseq;
#X obj 492 109 tabread \$2-\$3-2-tseq;
#X obj 406 159 s v2\$3\$2;
#X obj 492 159 s t2\$3\$2;
#X obj 632 117 r vgt\$1;
#X obj 596 138 list append;
#X obj 682 137 sel 1;
#X obj 634 86 tabread \$2-\$3-3-vseq;
#X obj 682 109 tabread \$2-\$3-3-tseq;
#X obj 682 159 s t3\$3\$2;
#X obj 596 159 s v3\$3\$2;
#X obj 822 117 r vgt\$1;
#X obj 786 138 list append;
#X obj 872 137 sel 1;
#X obj 824 86 tabread \$2-\$3-4-vseq;
#X obj 872 109 tabread \$2-\$3-4-tseq;
#X obj 786 159 s v4\$3\$2;
#X obj 872 159 s t4\$3\$2;
#X obj 1012 117 r vgt\$1;
#X obj 976 138 list append;
#X obj 1062 137 sel 1;
#X obj 1014 86 tabread \$2-\$3-5-vseq;
#X obj 1062 109 tabread \$2-\$3-5-tseq;
#X obj 976 159 s v5\$3\$2;
#X obj 1062 159 s t5\$3\$2;
#X obj 632 52 t f f f f f f f f f f;
#X obj 405 488 *~;
#X obj 445 488 vline~;
#X obj 445 319 pack f f f;
#X obj 495 488 *~;
#X obj 535 488 vline~;
#X obj 395 290 bng 15 250 50 0 empty empty empty 17 7 0 10 -262144
-1 -1;
#X msg 445 342 0 \, \$2 \$3;
#X obj 475 276 r ssz\$2-\$3-1;
#X obj 418 276 r t2\$3\$2;
#X obj 445 466 r v2\$3\$2;
#X obj 535 466 r v2\$3\$2;
#X obj 405 416 tabread4~ snd\$2-\$3-1L;
#X obj 495 436 tabread4~ snd\$2-\$3-1R;
#X obj 625 488 *~;
#X obj 665 488 vline~;
#X obj 665 386 vline~;
#X obj 665 319 pack f f f;
#X obj 715 488 *~;
#X obj 755 488 vline~;
#X obj 615 290 bng 15 250 50 0 empty empty empty 17 7 0 10 -262144
-1 -1;
#X msg 665 342 0 \, \$2 \$3;
#X obj 638 276 r t3\$3\$2;
#X obj 695 276 r ssz\$2-\$3-1;
#X obj 726 297 r len\$2-\$3-1;
#X obj 625 416 tabread4~ snd\$2-\$3-1L;
#X obj 715 436 tabread4~ snd\$2-\$3-1R;
#X obj 665 466 r v3\$3\$2;
#X obj 755 466 r v3\$3\$2;
#X obj 845 488 *~;
#X obj 885 488 vline~;
#X obj 885 319 pack f f f;
#X obj 935 488 *~;
#X obj 975 488 vline~;
#X obj 835 290 bng 15 250 50 0 empty empty empty 17 7 0 10 -262144
-1 -1;
#X msg 885 342 0 \, \$2 \$3;
#X obj 858 276 r t4\$3\$2;
#X obj 915 276 r ssz\$2-\$3-1;
#X obj 946 297 r len\$2-\$3-1;
#X obj 845 416 tabread4~ snd\$2-\$3-1L;
#X obj 935 436 tabread4~ snd\$2-\$3-1R;
#X obj 885 466 r v4\$3\$2;
#X obj 975 466 r v4\$3\$2;
#X obj 1065 488 *~;
#X obj 1105 488 vline~;
#X obj 1105 319 pack f f f;
#X obj 1155 488 *~;
#X obj 1195 488 vline~;
#X obj 1055 291 bng 15 250 50 0 empty empty empty 17 7 0 10 -262144
-1 -1;
#X msg 1105 342 0 \, \$2 \$3;
#X obj 1078 276 r t5\$3\$2;
#X obj 1135 276 r ssz\$2-\$3-1;
#X obj 1167 297 r len\$2-\$3-1;
#X obj 1065 416 tabread4~ snd\$2-\$3-1L;
#X obj 1155 436 tabread4~ snd\$2-\$3-1R;
#X obj 1105 466 r v5\$3\$2;
#X obj 1195 466 r v5\$3\$2;
#X floatatom 542 141 5 0 0 0 - - -;
#X msg 255 324 bufsize 100;
#X obj 318 275 lbang;
#X obj 506 297 r len\$2-\$3-1;
#X text 22 74 v/t125 -> v/t521 \; was: deck-track-notenum \; now: notenum-track-deck
\; (deck: 1-based);
#X obj 542 19 r curstep\$1;
#X obj 244 86 tabread \$2-\$3-1-vseq;
#X text 18 40 [ttsq_clasSqAudEngTr2_pitch 0 1 2];
#X text 18 20 "Track 2"=pitched poly audioeng (was [pd AudioEngineTr2])
;
#X obj 436 221 expr pow(2 \, (-2./12));
#X obj 636 188 t b b b b;
#X obj 576 188 loadbang;
#X obj 576 221 expr pow(2 \, (-1./12));
#X obj 716 221 expr pow(2 \, (1./12));
#X obj 846 221 expr pow(2 \, (2./12));
#X obj 436 244 s t\$3fm2\$1;
#X obj 576 244 s t\$3fm1\$1;
#X obj 716 244 s t\$3fp1\$1;
#X obj 846 244 s t\$3fp2\$1;
#X obj 65 386 *~;
#X obj 445 386 *~;
#X obj 885 386 *~;
#X obj 1105 386 *~;
#X obj 1171 357 r t\$3fm2\$1;
#X obj 951 357 r t\$3fm1\$1;
#X obj 511 357 r t\$3fp1\$1;
#X obj 121 358 r t\$3fp2\$1;
#X obj 65 366 vline~;
#X obj 445 366 vline~;
#X obj 885 366 vline~;
#X obj 1105 366 vline~;
#X obj 654 31 spigot;
#X obj 663 10 r csqEnabled\$1;
#X connect 2 0 31 0;
#X connect 3 0 2 1;
#X connect 4 0 2 0;
#X connect 8 0 7 0;
#X connect 8 0 15 0;
#X connect 12 0 13 1;
#X connect 13 0 11 0;
#X connect 14 0 3 0;
#X connect 15 0 16 0;
#X connect 17 0 22 0;
#X connect 19 0 18 0;
#X connect 19 0 22 2;
#X connect 20 0 21 0;
#X connect 20 0 22 1;
#X connect 22 0 33 0;
#X connect 24 0 25 0;
#X connect 25 0 32 0;
#X connect 26 0 25 1;
#X connect 27 0 26 0;
#X connect 28 0 22 0;
#X connect 29 0 10 0;
#X connect 30 0 10 0;
#X connect 33 0 146 0;
#X connect 34 0 35 1;
#X connect 35 0 39 0;
#X connect 36 0 40 0;
#X connect 37 0 35 0;
#X connect 38 0 36 0;
#X connect 38 0 119 0;
#X connect 41 0 42 1;
#X connect 42 0 47 0;
#X connect 43 0 46 0;
#X connect 44 0 42 0;
#X connect 45 0 43 0;
#X connect 48 0 49 1;
#X connect 49 0 53 0;
#X connect 50 0 54 0;
#X connect 51 0 49 0;
#X connect 52 0 50 0;
#X connect 55 0 56 1;
#X connect 56 0 60 0;
#X connect 57 0 61 0;
#X connect 58 0 56 0;
#X connect 59 0 57 0;
#X connect 62 0 125 0;
#X connect 62 1 8 0;
#X connect 62 2 37 0;
#X connect 62 3 38 0;
#X connect 62 4 44 0;
#X connect 62 5 45 0;
#X connect 62 6 51 0;
#X connect 62 7 52 0;
#X connect 62 8 58 0;
#X connect 62 9 59 0;
#X connect 63 0 31 0;
#X connect 64 0 63 1;
#X connect 65 0 69 0;
#X connect 66 0 32 0;
#X connect 67 0 66 1;
#X connect 68 0 65 0;
#X connect 69 0 147 0;
#X connect 70 0 65 1;
#X connect 71 0 65 0;
#X connect 72 0 64 0;
#X connect 73 0 67 0;
#X connect 74 0 63 0;
#X connect 75 0 66 0;
#X connect 76 0 31 0;
#X connect 77 0 76 1;
#X connect 78 0 87 0;
#X connect 78 0 88 0;
#X connect 79 0 83 0;
#X connect 80 0 32 0;
#X connect 81 0 80 1;
#X connect 82 0 79 0;
#X connect 83 0 78 0;
#X connect 84 0 79 0;
#X connect 85 0 79 1;
#X connect 86 0 79 2;
#X connect 87 0 76 0;
#X connect 88 0 80 0;
#X connect 89 0 77 0;
#X connect 90 0 81 0;
#X connect 91 0 31 0;
#X connect 92 0 91 1;
#X connect 93 0 97 0;
#X connect 94 0 32 0;
#X connect 95 0 94 1;
#X connect 96 0 93 0;
#X connect 97 0 148 0;
#X connect 98 0 93 0;
#X connect 99 0 93 1;
#X connect 100 0 93 2;
#X connect 101 0 91 0;
#X connect 102 0 94 0;
#X connect 103 0 92 0;
#X connect 104 0 95 0;
#X connect 105 0 31 0;
#X connect 106 0 105 1;
#X connect 107 0 111 0;
#X connect 108 0 32 0;
#X connect 109 0 108 1;
#X connect 110 0 107 0;
#X connect 111 0 149 0;
#X connect 112 0 107 0;
#X connect 113 0 107 1;
#X connect 114 0 107 2;
#X connect 115 0 105 0;
#X connect 116 0 108 0;
#X connect 117 0 106 0;
#X connect 118 0 109 0;
#X connect 120 0 10 0;
#X connect 121 0 120 0;
#X connect 121 0 29 0;
#X connect 122 0 65 2;
#X connect 124 0 5 0;
#X connect 124 0 150 0;
#X connect 125 0 6 0;
#X connect 125 0 13 0;
#X connect 128 0 134 0;
#X connect 129 0 128 0;
#X connect 129 1 131 0;
#X connect 129 2 132 0;
#X connect 129 3 133 0;
#X connect 130 0 129 0;
#X connect 131 0 135 0;
#X connect 132 0 136 0;
#X connect 133 0 137 0;
#X connect 138 0 4 0;
#X connect 138 0 24 0;
#X connect 138 0 10 0;
#X connect 139 0 74 0;
#X connect 139 0 75 0;
#X connect 140 0 101 0;
#X connect 140 0 102 0;
#X connect 141 0 115 0;
#X connect 141 0 116 0;
#X connect 142 0 141 1;
#X connect 143 0 140 1;
#X connect 144 0 139 1;
#X connect 145 0 138 1;
#X connect 146 0 138 0;
#X connect 147 0 139 0;
#X connect 148 0 140 0;
#X connect 149 0 141 0;
#X connect 150 0 62 0;
#X connect 151 0 150 1;
