#N canvas 359 97 478 401 10;
#N canvas 0 49 450 300 (subpatch) 0;
#X array snd\$2-1-1L 40509 float 2;
#X coords 0 1 40509 -1 100 70 1 0 0;
#X restore 19 130 graph;
#N canvas 0 0 450 300 (subpatch) 0;
#X array snd\$2-1-1R 40509 float 2;
#X coords 0 1 40509 -1 100 70 1 0 0;
#X restore 132 130 graph;
#N canvas 0 49 450 300 (subpatch) 0;
#X array snd\$2-1-2L 15907 float 2;
#X coords 0 1 15907 -1 100 70 1 0 0;
#X restore 247 131 graph;
#N canvas 0 0 450 300 (subpatch) 0;
#X array snd\$2-1-2R 15907 float 2;
#X coords 0 1 15907 -1 100 70 1 0 0;
#X restore 360 130 graph;
#X text 17 65 ids: Song-Track-Notenum (or Song-Channel-Track);
#N canvas 0 49 450 300 (subpatch) 0;
#X array snd\$2-1-3L 7561 float 2;
#X coords 0 1 7561 -1 100 70 1 0 0;
#X restore 19 220 graph;
#N canvas 0 0 450 300 (subpatch) 0;
#X array snd\$2-1-3R 7561 float 2;
#X coords 0 1 7561 -1 100 70 1 0 0;
#X restore 132 220 graph;
#N canvas 0 49 450 300 (subpatch) 0;
#X array snd\$2-1-4L 30982 float 2;
#X coords 0 1 30982 -1 100 70 1 0 0;
#X restore 247 221 graph;
#N canvas 0 0 450 300 (subpatch) 0;
#X array snd\$2-1-4R 30982 float 2;
#X coords 0 1 30982 -1 100 70 1 0 0;
#X restore 360 220 graph;
#N canvas 0 49 450 300 (subpatch) 0;
#X array snd\$2-1-5L 11038 float 2;
#X coords 0 1 11038 -1 100 70 1 0 0;
#X restore 19 310 graph;
#N canvas 0 0 450 300 (subpatch) 0;
#X array snd\$2-1-5R 11038 float 2;
#X coords 0 1 11038 -1 100 70 1 0 0;
#X restore 132 310 graph;
#N canvas 0 49 450 300 (subpatch) 0;
#X array snd\$2-2-1L 179751 float 2;
#X coords 0 1 179751 -1 100 70 1 0 0;
#X restore 249 310 graph;
#N canvas 0 0 450 300 (subpatch) 0;
#X array snd\$2-2-1R 179751 float 2;
#X coords 0 1 179751 -1 100 70 1 0 0;
#X restore 362 310 graph;
#X text 17 95 so the ids can now mean: Deck-Track-Notenum;
#X text 17 75 Actually \, songs are now managed by sampleMenuManager
\,;
#X text 17 84 and loaded in these very same slots (per instrument)
;
#X text 22 6 instantiate this as [ttsq_SoundSamples 0 1] \; first arg:
actual deck id num (0-based \, unused here) \, second: id increased
by 1 - so can generate snd1-... here without calculating;
